<?xml version="1.0" standalone="no"?>
<!DOCTYPE svg PUBLIC "-//W3C//DTD SVG 20010904//EN"
 "http://www.w3.org/TR/2001/REC-SVG-20010904/DTD/svg10.dtd">
<svg version="1.0" xmlns="http://www.w3.org/2000/svg"
 width="437.000000pt" height="547.000000pt" viewBox="0 0 437.000000 547.000000"
 preserveAspectRatio="xMidYMid meet">

<g transform="translate(0.000000,547.000000) scale(0.100000,-0.100000)"
fill="#000000" stroke="none">
<path d="M2191 5329 c-3 -39 -147 -559 -193 -694 -84 -250 -192 -470 -296
-601 l-39 -49 96 0 c115 0 153 -16 224 -95 59 -66 81 -130 75 -220 -9 -117
-73 -206 -186 -258 -46 -21 -65 -24 -126 -20 -113 8 -197 61 -252 160 -26 48
-29 62 -29 144 l0 91 -90 -63 c-222 -153 -482 -254 -1031 -398 l-231 -62 151
-38 c599 -153 920 -277 1151 -446 l50 -37 0 86 c0 99 16 138 86 210 60 62 117
85 209 85 90 0 147 -22 207 -81 61 -60 86 -115 91 -204 12 -198 -92 -442 -288
-678 -27 -33 -50 -62 -50 -64 0 -2 26 -7 58 -11 115 -13 200 -76 249 -184 22
-46 25 -65 22 -135 -4 -73 -8 -89 -38 -139 -39 -64 -107 -120 -167 -138 -57
-17 -179 -9 -229 15 -83 40 -146 125 -169 227 l-11 48 -125 -141 c-335 -379
-410 -532 -410 -842 0 -202 62 -340 223 -498 162 -158 406 -222 635 -168 131
31 305 150 389 266 21 29 43 52 48 52 6 0 27 -23 48 -52 84 -116 258 -235 389
-266 229 -54 473 10 635 168 161 158 223 296 223 498 0 310 -75 463 -410 842
l-125 141 -11 -48 c-16 -70 -44 -122 -89 -167 -65 -65 -105 -80 -215 -80 -107
0 -146 15 -211 78 -61 59 -89 128 -89 217 0 66 4 86 30 138 50 100 130 155
243 168 31 4 57 9 57 11 0 2 -23 31 -50 64 -196 236 -300 480 -288 678 5 89
30 144 91 204 60 59 117 81 207 81 92 0 149 -23 209 -85 70 -72 86 -111 86
-210 l0 -86 50 37 c231 169 552 293 1151 446 l151 38 -231 62 c-549 144 -809
245 -1031 398 l-90 63 0 -91 c0 -82 -3 -96 -29 -144 -55 -99 -139 -152 -252
-160 -61 -4 -80 -1 -126 20 -113 52 -177 141 -186 258 -6 90 16 154 75 220 71
79 109 95 224 95 l96 0 -39 49 c-104 131 -212 351 -296 601 -39 116 -144 487
-195 690 -3 13 -5 15 -6 4z m19 -391 c0 -6 30 -108 66 -227 74 -238 138 -400
214 -535 27 -49 50 -92 50 -95 0 -4 -23 -14 -50 -24 -104 -37 -205 -146 -236
-255 -23 -80 -15 -199 19 -275 33 -74 115 -155 192 -192 80 -38 196 -46 280
-19 114 35 225 144 256 252 7 23 15 41 18 40 4 -2 60 -31 126 -65 165 -84 264
-122 515 -199 118 -36 221 -67 229 -70 24 -8 0 -19 -114 -53 -295 -86 -434
-137 -595 -218 -90 -45 -165 -81 -165 -80 -64 141 -121 209 -208 252 -252 123
-547 -44 -565 -321 -12 -190 50 -379 195 -597 36 -54 64 -99 62 -101 -2 -1
-24 -14 -49 -28 -63 -36 -133 -110 -166 -177 -27 -52 -29 -65 -29 -166 0 -104
2 -114 33 -177 38 -78 106 -144 190 -185 51 -25 67 -28 162 -28 93 0 112 3
162 27 55 25 148 107 179 157 l15 25 90 -103 c157 -181 248 -323 287 -446 8
-27 21 -94 28 -148 28 -214 -26 -375 -174 -522 -160 -158 -347 -215 -559 -171
-164 35 -303 141 -410 312 -29 46 -57 84 -63 84 -5 0 -34 -38 -63 -84 -51 -81
-122 -162 -186 -211 -90 -69 -232 -115 -356 -115 -165 0 -299 58 -427 185
-148 147 -202 308 -174 522 7 54 20 121 28 148 39 123 130 265 287 446 l90
103 15 -25 c31 -50 124 -132 179 -157 50 -24 69 -27 162 -27 95 0 111 3 162
28 84 41 152 107 190 185 31 63 33 73 33 177 0 101 -2 114 -29 166 -33 67
-103 141 -166 177 -25 14 -47 27 -49 28 -2 2 26 47 62 101 145 218 207 407
195 597 -18 277 -313 444 -565 321 -87 -43 -144 -111 -208 -252 0 -1 -75 35
-165 80 -161 81 -300 132 -595 218 -114 34 -138 45 -114 53 8 3 111 34 229 70
251 77 350 115 515 199 66 34 122 63 126 65 3 1 11 -17 18 -40 31 -108 142
-217 256 -252 84 -27 200 -19 280 19 77 37 159 118 192 192 34 76 42 195 19
275 -31 109 -132 218 -236 255 -27 10 -50 20 -50 24 0 3 23 46 50 95 77 137
141 298 214 539 37 121 69 226 72 233 4 15 24 7 24 -10z"/>
</g>
</svg>
